<svg width="24" height="24" viewBox="0 0 24 24" fill="none" xmlns="http://www.w3.org/2000/svg">
<path d="M15.0976 13.4475V14.1975C15.0976 14.69 15.0006 15.1776 14.8121 15.6326C14.6236 16.0875 14.3474 16.5009 13.9992 16.8492C13.651 17.1974 13.2376 17.4736 12.7826 17.6621C12.3276 17.8505 11.84 17.9475 11.3476 17.9475H8.90255C8.89099 18.3577 8.76748 18.7569 8.54539 19.1019C8.32331 19.4469 8.0111 19.7246 7.64255 19.905C7.33518 20.0586 6.99616 20.1382 6.65256 20.1375C6.14426 20.1405 5.64991 19.9713 5.25006 19.6575L2.46756 17.475C2.19656 17.2647 1.97724 16.9952 1.82636 16.6871C1.67548 16.379 1.59705 16.0405 1.59705 15.6975C1.59705 15.3545 1.67548 15.016 1.82636 14.7079C1.97724 14.3998 2.19656 14.1303 2.46756 13.92L5.25006 11.7375C5.5853 11.4699 5.99004 11.3038 6.41659 11.2586C6.84313 11.2134 7.2737 11.2911 7.65756 11.4825C8.1687 11.727 8.56235 12.1638 8.75256 12.6975H14.3251C14.4254 12.6945 14.5254 12.7117 14.619 12.748C14.7126 12.7843 14.7979 12.8391 14.87 12.9091C14.942 12.979 14.9993 13.0627 15.0384 13.1552C15.0775 13.2477 15.0976 13.3471 15.0976 13.4475Z" fill="#E9AB17"/>
<path d="M22.4026 8.30246C22.4026 8.64546 22.3243 8.98393 22.1735 9.292C22.0227 9.60007 21.8035 9.86959 21.5326 10.08L18.7501 12.2625C18.3446 12.5775 17.846 12.749 17.3326 12.75C16.989 12.7507 16.65 12.671 16.3426 12.5175C15.8314 12.273 15.4378 11.8362 15.2476 11.3025H9.65259C9.45368 11.3025 9.26291 11.2234 9.12226 11.0828C8.98161 10.9421 8.90259 10.7514 8.90259 10.5525V9.80246C8.90259 8.8079 9.29768 7.85408 10.0009 7.15081C10.7042 6.44755 11.658 6.05246 12.6526 6.05246H15.0976C15.1067 5.63318 15.2329 5.22479 15.4618 4.87338C15.6907 4.52197 16.0132 4.24153 16.393 4.06371C16.7729 3.88588 17.1948 3.81776 17.6113 3.86701C18.0278 3.91627 18.4222 4.08095 18.7501 4.34247L21.5326 6.52497C21.8035 6.73534 22.0227 7.00486 22.1735 7.31293C22.3243 7.621 22.4026 7.95947 22.4026 8.30246Z" fill="#E9AB17"/>
</svg>
