<svg width="9" height="19" viewBox="0 0 9 19" fill="none" xmlns="http://www.w3.org/2000/svg">
<path d="M1.00498 18.9996C0.872116 18.999 0.740685 18.9721 0.618301 18.9204C0.495916 18.8687 0.38501 18.7932 0.292008 18.6983C0.104979 18.5102 0 18.2556 0 17.9904C0 17.7251 0.104979 17.4706 0.292008 17.2824L5.97567 11.5987C6.53982 11.0339 6.8567 10.2682 6.8567 9.46988C6.8567 8.67156 6.53982 7.90587 5.97567 7.34102L0.292008 1.65736C0.127497 1.46526 0.0415325 1.21815 0.0512943 0.965423C0.061056 0.712695 0.165825 0.472957 0.344664 0.294118C0.523503 0.115279 0.76324 0.0105107 1.01597 0.0007489C1.2687 -0.0090129 1.5158 0.0769511 1.7079 0.241462L7.44177 5.91508C7.90935 6.38148 8.28033 6.93554 8.53344 7.54553C8.78656 8.15553 8.91685 8.80946 8.91685 9.46988C8.91685 10.1303 8.78656 10.7842 8.53344 11.3942C8.28033 12.0042 7.90935 12.5583 7.44177 13.0247L1.75811 18.6983C1.66043 18.7981 1.543 18.8765 1.41332 18.9284C1.28364 18.9802 1.14456 19.0045 1.00498 18.9996Z" fill="#E9AB17"/>
</svg>
