<svg width="39" height="13" viewBox="0 0 39 13" fill="none" xmlns="http://www.w3.org/2000/svg">
<path d="M14.807 0.219373L9.70124 12.1354H6.36999L3.85775 2.62452C3.705 2.03952 3.57337 1.82492 3.10862 1.57852C2.35137 1.17634 1.10012 0.799596 0 0.564327L0.0747499 0.219373H5.43724C5.78767 0.219029 6.12668 0.341243 6.39308 0.563953C6.65948 0.786663 6.83572 1.0952 6.88999 1.43387L8.21762 8.32978L11.4969 0.219373H14.807ZM27.8606 8.24552C27.8736 5.0996 23.4146 4.92633 23.4455 3.52108C23.4552 3.09346 23.8712 2.63882 24.7812 2.52278C25.8477 2.4237 26.9217 2.60823 27.8898 3.0569L28.4423 0.529354C27.4998 0.182723 26.5016 0.00346006 25.4946 0C22.3795 0 20.1874 1.62145 20.1679 3.94075C20.1484 5.65598 21.7327 6.61136 22.9271 7.18364C24.1556 7.76704 24.5683 8.1422 24.5618 8.6636C24.5537 9.46479 23.5836 9.8161 22.6769 9.83041C21.0925 9.85425 20.1744 9.41233 19.4399 9.0785L18.8695 11.6887C19.6056 12.0194 20.9641 12.3087 22.373 12.3214C25.6831 12.3214 27.8492 10.7222 27.8606 8.24552ZM36.0847 12.1354H39L36.4568 0.219373H33.7658C33.4783 0.216766 33.1966 0.298726 32.9573 0.454623C32.718 0.61052 32.532 0.833163 32.4236 1.09368L27.6965 12.1354H31.005L31.6631 10.355H35.7061L36.0847 12.1354ZM32.5698 7.91329L34.2273 3.43842L35.1828 7.91329H32.5698ZM19.3099 0.219373L16.705 12.1354H13.5525L16.1606 0.219373H19.3099Z" fill="white"/>
</svg>
