<svg width="24" height="17" viewBox="0 0 24 17" fill="none" xmlns="http://www.w3.org/2000/svg">
<path d="M1.37243 7.57163L2.2357 6.71634L7.6461 1.35594L1.37243 7.57163ZM1.37243 7.57163H2.58764M1.37243 7.57163H2.58764M2.58764 7.57163H22.9999C23.1325 7.57163 23.2597 7.62431 23.3535 7.71809C23.4473 7.81187 23.4999 7.93906 23.4999 8.07168C23.4999 8.2043 23.4473 8.3315 23.3535 8.42527C23.2597 8.51905 23.1325 8.57174 22.9999 8.57174H2.58764H1.38041L2.23405 9.42538L7.59464 14.786L7.59609 14.7874C7.64296 14.8339 7.68017 14.8892 7.70555 14.9501C7.73094 15.0111 7.74401 15.0764 7.74401 15.1425C7.74401 15.2085 7.73094 15.2738 7.70555 15.3348C7.68016 15.3957 7.64296 15.451 7.59609 15.4975L7.59609 15.4975C7.54936 15.5439 7.49395 15.5805 7.43302 15.6054C7.3721 15.6303 7.30686 15.6429 7.24105 15.6425L7.24026 15.6425C7.10937 15.642 6.98393 15.5901 6.89085 15.4981C6.89064 15.4979 6.89043 15.4977 6.89022 15.4975L1.23127 9.83854C1.23121 9.83848 1.23115 9.83842 1.23109 9.83837C0.762983 9.36958 0.500055 8.73417 0.500055 8.07168C0.500055 7.40951 0.762732 6.77439 1.23042 6.30567C1.2307 6.30539 1.23099 6.3051 1.23127 6.30482L6.94012 0.645969L6.94062 0.645468C7.03432 0.552331 7.16106 0.500055 7.29316 0.500055C7.42527 0.500055 7.55201 0.552331 7.6457 0.645468L7.6461 0.645863M2.58764 7.57163L7.6461 0.645863M7.6461 0.645863C7.69297 0.69235 7.73017 0.747657 7.75556 0.808594C7.78095 0.86953 7.79402 0.93489 7.79402 1.0009C7.79402 1.06692 7.78095 1.13227 7.75556 1.19321C7.73021 1.25407 7.69307 1.3093 7.64629 1.35575L7.6461 0.645863Z" fill="#E9AB17" stroke="white"/>
</svg>
