<svg width="26" height="24" viewBox="0 0 26 24" fill="none" xmlns="http://www.w3.org/2000/svg">
<path fill-rule="evenodd" clip-rule="evenodd" d="M5.57143 17.1429H1.85714V22.2857H5.57143V17.1429ZM14.8571 10.2857H11.1429V22.2857H14.8571V10.2857ZM24.1429 1.71429H20.4286V22.2857H24.1429V1.71429ZM20.4286 0C19.936 0 19.4637 0.180612 19.1154 0.502103C18.7671 0.823593 18.5714 1.25963 18.5714 1.71429V22.2857C18.5714 22.7404 18.7671 23.1764 19.1154 23.4979C19.4637 23.8194 19.936 24 20.4286 24H24.1429C24.6354 24 25.1078 23.8194 25.4561 23.4979C25.8043 23.1764 26 22.7404 26 22.2857V1.71429C26 1.25963 25.8043 0.823593 25.4561 0.502103C25.1078 0.180612 24.6354 0 24.1429 0H20.4286ZM9.28571 10.2857C9.28571 9.83106 9.48138 9.39502 9.82966 9.07353C10.1779 8.75204 10.6503 8.57143 11.1429 8.57143H14.8571C15.3497 8.57143 15.8221 8.75204 16.1703 9.07353C16.5186 9.39502 16.7143 9.83106 16.7143 10.2857V22.2857C16.7143 22.7404 16.5186 23.1764 16.1703 23.4979C15.8221 23.8194 15.3497 24 14.8571 24H11.1429C10.6503 24 10.1779 23.8194 9.82966 23.4979C9.48138 23.1764 9.28571 22.7404 9.28571 22.2857V10.2857ZM0 17.1429C0 16.6882 0.195663 16.2522 0.543944 15.9307C0.892226 15.6092 1.3646 15.4286 1.85714 15.4286H5.57143C6.06397 15.4286 6.53634 15.6092 6.88463 15.9307C7.23291 16.2522 7.42857 16.6882 7.42857 17.1429V22.2857C7.42857 22.7404 7.23291 23.1764 6.88463 23.4979C6.53634 23.8194 6.06397 24 5.57143 24H1.85714C1.3646 24 0.892226 23.8194 0.543944 23.4979C0.195663 23.1764 0 22.7404 0 22.2857V17.1429Z" fill="white"/>
</svg>
