<svg width="23" height="18" viewBox="0 0 23 18" fill="none" xmlns="http://www.w3.org/2000/svg">
<path fill-rule="evenodd" clip-rule="evenodd" d="M7.61704 11.2326C7.63237 13.4089 9.67949 16.0034 11.0895 16.8419C11.1167 16.8561 11.1406 16.8759 11.1597 16.8999C11.1788 16.924 11.1926 16.9518 11.2002 16.9815C11.2078 17.0112 11.2091 17.0422 11.204 17.0725C11.1989 17.1028 11.1875 17.1316 11.1705 17.1572C11.1498 17.1917 11.1207 17.2202 11.0858 17.2402C11.0509 17.2601 11.0114 17.2707 10.9713 17.271C10.9303 17.2712 10.8901 17.2598 10.8552 17.2382C9.35107 16.3515 7.293 13.7592 7.16164 11.4384H0.229891C0.172509 11.4328 0.119263 11.406 0.0805242 11.3633C0.0417849 11.3206 0.0203256 11.2651 0.0203256 11.2074C0.0203256 11.1497 0.0417849 11.0942 0.0805242 11.0515C0.119263 11.0088 0.172509 10.982 0.229891 10.9764H7.20543C7.6423 9.44517 7.6423 7.82227 7.20543 6.29103H0.229891C0.16892 6.29103 0.110446 6.26681 0.0673334 6.22369C0.0242205 6.18058 0 6.12211 0 6.06114C0 6.00016 0.0242205 5.94169 0.0673334 5.89858C0.110446 5.85547 0.16892 5.83124 0.229891 5.83124H7.16164C7.293 3.50169 9.35983 0.918156 10.8552 0.0314351C10.9089 0.000369081 10.9728 -0.00808745 11.0327 0.00792589C11.0927 0.0239392 11.1438 0.0631107 11.1749 0.116823C11.2059 0.170535 11.2144 0.234389 11.1984 0.294336C11.1824 0.354284 11.1432 0.405414 11.0895 0.43648C9.67949 1.26409 7.63237 3.86075 7.61704 6.03924C8.11852 7.73404 8.11852 9.53778 7.61704 11.2326ZM14.7327 3.72063C13.9467 2.15081 12.7119 0.918159 11.8996 0.436484C11.8459 0.405418 11.8067 0.354287 11.7907 0.29434C11.7747 0.234392 11.7831 0.170539 11.8142 0.116827C11.8453 0.0631142 11.8964 0.0239427 11.9563 0.00792937C12.0163 -0.00808396 12.0801 0.000372564 12.1338 0.0314386C13.1979 0.655427 14.4349 2.08732 15.1443 3.50169C15.1614 3.52878 15.1723 3.55928 15.1763 3.59105C15.1803 3.62281 15.1773 3.65507 15.1675 3.68555C15.1577 3.71603 15.1413 3.74399 15.1195 3.76745C15.0978 3.79091 15.0711 3.80931 15.0414 3.82135C15.0098 3.83842 14.9744 3.84744 14.9385 3.84762C14.8958 3.84766 14.8539 3.83581 14.8176 3.81338C14.7812 3.79095 14.7518 3.75883 14.7327 3.72063ZM22.7701 10.9764H15.7814C15.3446 9.44517 15.3446 7.82227 15.7814 6.29103H22.7701C22.8311 6.29103 22.8896 6.26681 22.9327 6.22369C22.9758 6.18058 23 6.12211 23 6.06114C23 6.00017 22.9758 5.94169 22.9327 5.89858C22.8896 5.85547 22.8311 5.83125 22.7701 5.83125H15.6041C15.5543 5.83182 15.506 5.84857 15.4665 5.87897C15.427 5.90938 15.3984 5.9518 15.3852 5.99983C14.8761 7.70694 14.8761 9.52547 15.3852 11.2326C15.3698 13.4089 13.3227 16.0034 11.9127 16.8419C11.8848 16.8553 11.86 16.8745 11.84 16.8982C11.8201 16.9219 11.8054 16.9495 11.7969 16.9793C11.7884 17.0091 11.7863 17.0404 11.7908 17.0711C11.7953 17.1017 11.8063 17.1311 11.8229 17.1572C11.8436 17.1917 11.8728 17.2202 11.9077 17.2402C11.9426 17.2601 11.982 17.2707 12.0222 17.271C12.0632 17.2712 12.1034 17.2598 12.1382 17.2382C13.6336 16.3624 15.7004 13.7592 15.8318 11.4384H22.7701C22.8275 11.4328 22.8807 11.406 22.9195 11.3633C22.9582 11.3206 22.9797 11.2651 22.9797 11.2074C22.9797 11.1497 22.9582 11.0942 22.9195 11.0515C22.8807 11.0088 22.8275 10.982 22.7701 10.9764ZM11.2658 1.28529C11.3335 1.24007 11.4131 1.21592 11.4945 1.21592C11.6037 1.21592 11.7084 1.25929 11.7856 1.33648C11.8628 1.41368 11.9061 1.51837 11.9061 1.62754C11.9061 1.70895 11.882 1.78853 11.8368 1.85622C11.7915 1.92391 11.7273 1.97667 11.652 2.00782C11.5768 2.03897 11.4941 2.04712 11.4142 2.03124C11.3344 2.01536 11.261 1.97616 11.2035 1.91859C11.1459 1.86103 11.1067 1.78769 11.0908 1.70784C11.0749 1.62799 11.0831 1.54523 11.1142 1.47002C11.1454 1.39481 11.1982 1.33052 11.2658 1.28529Z" fill="#666666"/>
</svg>
