<svg width="34" height="34" viewBox="0 0 34 34" fill="none" xmlns="http://www.w3.org/2000/svg">
<path d="M7.14202 16.897C5.30001 14.4948 5.20806 11.2309 6.72476 8.61114L7.85531 6.65836C8.5791 5.40819 10.3526 5.32349 11.1923 6.49898L13.1107 9.18484C13.7053 10.0172 13.7676 11.1175 13.2708 12.0118L12.4702 13.453C12.0393 14.2286 12.1747 15.1959 12.8021 15.8233L18.1767 21.1979C18.8041 21.8253 19.7714 21.9608 20.547 21.5299L21.9883 20.7292C22.8825 20.2324 23.9828 20.2947 24.8152 20.8893L27.5011 22.8078C28.6765 23.6474 28.5918 25.4209 27.3417 26.1447L25.3889 27.2753C22.7692 28.792 19.5053 28.7 17.1031 26.858C15.3753 25.5331 13.3798 23.8955 11.7422 22.2579C10.1045 20.6202 8.46689 18.6247 7.14202 16.897Z" fill="#E9AB17"/>
</svg>
