<svg width="40" height="40" viewBox="0 0 40 40" fill="none" xmlns="http://www.w3.org/2000/svg">
<path d="M33.75 17.5001H31.8625C31.5852 17.5119 31.3118 17.4311 31.0855 17.2704C30.8591 17.1097 30.6927 16.8783 30.6125 16.6126L28.5125 9.45006C28.1243 8.1591 27.329 7.02827 26.2455 6.22629C25.1619 5.42431 23.8481 4.99417 22.5 5.00006H12.1375C10.8893 5.00035 9.66983 5.37436 8.63611 6.0739C7.6024 6.77344 6.80181 7.76647 6.33749 8.92506L2.77499 17.8376C2.59052 18.2811 2.497 18.7572 2.49999 19.2376V25.0001C2.50004 26.4647 3.01444 27.8828 3.95341 29.0068C4.89238 30.1308 6.19627 30.8894 7.63749 31.1501C7.8971 32.2342 8.51155 33.2004 9.38322 33.8953C10.2549 34.5902 11.3338 34.9739 12.4485 34.9854C13.5632 34.9969 14.6497 34.6355 15.5355 33.9587C16.4213 33.282 17.0556 32.3286 17.3375 31.2501H22.6625C22.9422 32.3201 23.5687 33.2671 24.444 33.9431C25.3193 34.619 26.3941 34.9857 27.5 34.9857C28.6059 34.9857 29.6807 34.619 30.556 33.9431C31.4313 33.2671 32.0578 32.3201 32.3375 31.2501H33.75C34.7446 31.2501 35.6984 30.855 36.4016 30.1517C37.1049 29.4484 37.5 28.4946 37.5 27.5001V21.2501C37.5 20.2555 37.1049 19.3017 36.4016 18.5984C35.6984 17.8951 34.7446 17.5001 33.75 17.5001ZM12.5 32.5001C12.0055 32.5001 11.5222 32.3534 11.1111 32.0787C10.6999 31.804 10.3795 31.4136 10.1903 30.9568C10.0011 30.5 9.95157 29.9973 10.048 29.5123C10.1445 29.0274 10.3826 28.5819 10.7322 28.2323C11.0819 27.8827 11.5273 27.6446 12.0123 27.5481C12.4972 27.4516 12.9999 27.5011 13.4567 27.6904C13.9135 27.8796 14.304 28.2 14.5787 28.6111C14.8534 29.0223 15 29.5056 15 30.0001C15 30.6631 14.7366 31.299 14.2678 31.7678C13.7989 32.2367 13.163 32.5001 12.5 32.5001ZM18.75 17.5001H5.58749L8.64999 9.86256C8.92788 9.16481 9.40888 8.56659 10.0307 8.14536C10.6525 7.72414 11.3864 7.49933 12.1375 7.50006H18.75V17.5001ZM21.25 17.5001V7.50006H22.5C23.3125 7.49305 24.1052 7.7501 24.759 8.23253C25.4127 8.71496 25.8921 9.39666 26.125 10.1751L28.2625 17.3251C28.2821 17.3855 28.3072 17.4441 28.3375 17.5001H21.25ZM27.5 32.5001C27.0055 32.5001 26.5222 32.3534 26.1111 32.0787C25.6999 31.804 25.3795 31.4136 25.1903 30.9568C25.0011 30.5 24.9516 29.9973 25.048 29.5123C25.1445 29.0274 25.3826 28.5819 25.7322 28.2323C26.0819 27.8827 26.5273 27.6446 27.0123 27.5481C27.4972 27.4516 27.9999 27.5011 28.4567 27.6904C28.9135 27.8796 29.304 28.2 29.5787 28.6111C29.8534 29.0223 30 29.5056 30 30.0001C30 30.6631 29.7366 31.299 29.2678 31.7678C28.7989 32.2367 28.163 32.5001 27.5 32.5001ZM35 25.0001H33.75C33.4185 25.0001 33.1005 24.8684 32.8661 24.6339C32.6317 24.3995 32.5 24.0816 32.5 23.7501C32.5 23.4185 32.6317 23.1006 32.8661 22.8662C33.1005 22.6318 33.4185 22.5001 33.75 22.5001H35V25.0001Z" fill="#0077FF"/>
</svg>
