<svg width="26" height="25" viewBox="0 0 26 25" fill="none" xmlns="http://www.w3.org/2000/svg">
<mask id="path-1-inside-1_0_311" fill="white">
<path d="M13.7977 13.7047L23.8422 13.7047C24.0146 13.718 24.1879 13.6956 24.3513 13.6387C24.5146 13.5819 24.6644 13.4919 24.7914 13.3745C24.9183 13.257 25.0195 13.1145 25.0888 12.9561C25.158 12.7976 25.1938 12.6265 25.1938 12.4536C25.1938 12.2806 25.158 12.1095 25.0888 11.9511C25.0195 11.7926 24.9183 11.6501 24.7914 11.5327C24.6644 11.4152 24.5146 11.3252 24.3513 11.2684C24.1879 11.2116 24.0146 11.1891 23.8422 11.2025L13.7977 11.2025L13.7977 1.15805C13.7734 0.842936 13.631 0.548629 13.399 0.333939C13.1671 0.119249 12.8627 -1.17267e-05 12.5466 -1.17267e-05C12.2306 -1.17373e-05 11.9262 0.119249 11.6942 0.333939C11.4623 0.548629 11.3199 0.842936 11.2955 1.15805L11.2955 11.2025L1.25111 11.2024C0.919602 11.2034 0.601948 11.3356 0.367532 11.57C0.133116 11.8044 0.000986653 12.1221 2.06018e-07 12.4536C0.000987034 12.7851 0.133116 13.1027 0.367532 13.3371C0.601948 13.5716 0.919602 13.7037 1.25111 13.7047L11.2955 13.7047L11.2955 23.7491C11.2965 24.0806 11.4286 24.3982 11.6631 24.6327C11.8975 24.8671 12.2151 24.9992 12.5466 25.0002C12.8781 24.9992 13.1958 24.8671 13.4302 24.6327C13.6646 24.3982 13.7968 24.0806 13.7977 23.7491L13.7977 13.7047Z"/>
</mask>
<path d="M13.7977 13.7047L23.8422 13.7047C24.0146 13.718 24.1879 13.6956 24.3513 13.6387C24.5146 13.5819 24.6644 13.4919 24.7914 13.3745C24.9183 13.257 25.0195 13.1145 25.0888 12.9561C25.158 12.7976 25.1938 12.6265 25.1938 12.4536C25.1938 12.2806 25.158 12.1095 25.0888 11.9511C25.0195 11.7926 24.9183 11.6501 24.7914 11.5327C24.6644 11.4152 24.5146 11.3252 24.3513 11.2684C24.1879 11.2116 24.0146 11.1891 23.8422 11.2025L13.7977 11.2025L13.7977 1.15805C13.7734 0.842936 13.631 0.548629 13.399 0.333939C13.1671 0.119249 12.8627 -1.17267e-05 12.5466 -1.17267e-05C12.2306 -1.17373e-05 11.9262 0.119249 11.6942 0.333939C11.4623 0.548629 11.3199 0.842936 11.2955 1.15805L11.2955 11.2025L1.25111 11.2024C0.919602 11.2034 0.601948 11.3356 0.367532 11.57C0.133116 11.8044 0.000986653 12.1221 2.06018e-07 12.4536C0.000987034 12.7851 0.133116 13.1027 0.367532 13.3371C0.601948 13.5716 0.919602 13.7037 1.25111 13.7047L11.2955 13.7047L11.2955 23.7491C11.2965 24.0806 11.4286 24.3982 11.6631 24.6327C11.8975 24.8671 12.2151 24.9992 12.5466 25.0002C12.8781 24.9992 13.1958 24.8671 13.4302 24.6327C13.6646 24.3982 13.7968 24.0806 13.7977 23.7491L13.7977 13.7047Z" fill="black"/>
<path d="M13.7977 13.7047L13.7977 11.195L11.288 11.195L11.288 13.7047L13.7977 13.7047ZM23.8422 13.7047L24.0357 11.2025L23.9391 11.195H23.8422L23.8422 13.7047ZM23.8422 11.2025L23.8422 13.7122H23.9391L24.0357 13.7047L23.8422 11.2025ZM13.7977 11.2025L11.288 11.2025L11.288 13.7122L13.7977 13.7122L13.7977 11.2025ZM13.7977 1.15805L16.3075 1.15805V1.06111L16.3 0.964457L13.7977 1.15805ZM11.2955 1.15805L8.79329 0.964457L8.78581 1.06111V1.15805L11.2955 1.15805ZM11.2955 11.2025L11.2955 13.7122L13.8052 13.7122L13.8052 11.2025H11.2955ZM1.25111 11.2024L1.25111 8.69273L1.24365 8.69276L1.25111 11.2024ZM2.06018e-07 12.4536L-2.50969 12.4461L-2.50972 12.4536L-2.50969 12.461L2.06018e-07 12.4536ZM1.25111 13.7047L1.24365 16.2144L1.25111 16.2144L1.25111 13.7047ZM11.2955 13.7047H13.8052V11.195H11.2955V13.7047ZM11.2955 23.7491L8.7858 23.7491L8.78583 23.7565L11.2955 23.7491ZM12.5466 25.0002L12.5392 27.5099L12.5466 27.5099L12.5541 27.5099L12.5466 25.0002ZM13.7977 23.7491L16.3075 23.7565L16.3075 23.7491L13.7977 23.7491ZM13.7977 16.2144L23.8422 16.2144L23.8422 11.195L13.7977 11.195L13.7977 16.2144ZM23.6486 16.2069C24.1659 16.2469 24.6858 16.1796 25.1759 16.0091L23.5266 11.2684C23.69 11.2116 23.8633 11.1891 24.0357 11.2025L23.6486 16.2069ZM25.1759 16.0091C25.6659 15.8386 26.1154 15.5687 26.4962 15.2163L23.0865 11.5327C23.2135 11.4152 23.3633 11.3252 23.5266 11.2684L25.1759 16.0091ZM26.4962 15.2163C26.8769 14.8638 27.1807 14.4365 27.3885 13.9611L22.7891 11.9511C22.8584 11.7926 22.9596 11.6501 23.0865 11.5327L26.4962 15.2163ZM27.3885 13.9611C27.5963 13.4856 27.7035 12.9724 27.7035 12.4536L22.6841 12.4536C22.6841 12.2806 22.7198 12.1095 22.7891 11.9511L27.3885 13.9611ZM27.7035 12.4536C27.7035 11.9347 27.5963 11.4215 27.3885 10.9461L22.7891 12.9561C22.7198 12.7976 22.6841 12.6265 22.6841 12.4536L27.7035 12.4536ZM27.3885 10.9461C27.1807 10.4706 26.8769 10.0433 26.4962 9.69086L23.0865 13.3745C22.9596 13.257 22.8584 13.1145 22.7891 12.9561L27.3885 10.9461ZM26.4962 9.69086C26.1154 9.33842 25.6659 9.06849 25.1759 8.89802L23.5266 13.6387C23.3633 13.5819 23.2135 13.4919 23.0865 13.3745L26.4962 9.69086ZM25.1759 8.89802C24.6858 8.72754 24.1658 8.6602 23.6486 8.70022L24.0357 13.7047C23.8633 13.718 23.69 13.6956 23.5266 13.6387L25.1759 8.89802ZM23.8422 8.69275L13.7977 8.69275L13.7977 13.7122L23.8422 13.7122L23.8422 8.69275ZM16.3075 11.2025L16.3075 1.15805L11.288 1.15805L11.288 11.2025L16.3075 11.2025ZM16.3 0.964457C16.2268 0.0191288 15.7997 -0.863791 15.1039 -1.50786L11.6942 2.17574C11.4623 1.96105 11.3199 1.66674 11.2955 1.35164L16.3 0.964457ZM15.1039 -1.50786C14.408 -2.15194 13.4948 -2.50972 12.5466 -2.50972L12.5466 2.50969C12.2306 2.50969 11.9262 2.39043 11.6942 2.17574L15.1039 -1.50786ZM12.5466 -2.50972C11.5985 -2.50972 10.6852 -2.15194 9.98941 -1.50786L13.399 2.17574C13.1671 2.39043 12.8627 2.50969 12.5466 2.50969L12.5466 -2.50972ZM9.98941 -1.50786C9.29359 -0.863791 8.86643 0.019129 8.79329 0.964457L13.7977 1.35164C13.7734 1.66674 13.631 1.96105 13.399 2.17574L9.98941 -1.50786ZM8.78581 1.15805L8.78581 11.2025H13.8052L13.8052 1.15805L8.78581 1.15805ZM11.2955 8.69275L1.25111 8.69274L1.25111 13.7122L11.2955 13.7122L11.2955 8.69275ZM1.24365 8.69276C0.249115 8.69571 -0.703846 9.0921 -1.4071 9.79535L2.14216 13.3446C1.90774 13.579 1.59009 13.7112 1.25858 13.7121L1.24365 8.69276ZM-1.4071 9.79535C-2.11035 10.4986 -2.50674 11.4516 -2.50969 12.4461L2.50969 12.461C2.50871 12.7925 2.37658 13.1102 2.14216 13.3446L-1.4071 9.79535ZM-2.50969 12.461C-2.50674 13.4556 -2.11034 14.4085 -1.4071 15.1118L2.14216 11.5625C2.37658 11.7969 2.50871 12.1146 2.50969 12.4461L-2.50969 12.461ZM-1.4071 15.1118C-0.703851 15.815 0.249108 16.2114 1.24365 16.2144L1.25858 11.195C1.59009 11.196 1.90775 11.3281 2.14216 11.5625L-1.4071 15.1118ZM1.25111 16.2144L11.2955 16.2144V11.195L1.25111 11.195L1.25111 16.2144ZM8.78581 13.7047V23.7491L13.8052 23.7491L13.8052 13.7047H8.78581ZM8.78583 23.7565C8.78878 24.7511 9.18517 25.704 9.88842 26.4073L13.4377 22.858C13.6721 23.0924 13.8042 23.4101 13.8052 23.7416L8.78583 23.7565ZM9.88842 26.4073C10.5917 27.1105 11.5446 27.5069 12.5392 27.5099L12.5541 22.4905C12.8856 22.4915 13.2033 22.6236 13.4377 22.858L9.88842 26.4073ZM12.5541 27.5099C13.5486 27.5069 14.5016 27.1105 15.2048 26.4073L11.6556 22.858C11.89 22.6236 12.2077 22.4915 12.5392 22.4905L12.5541 27.5099ZM15.2048 26.4073C15.9081 25.704 16.3045 24.7511 16.3074 23.7565L11.2881 23.7416C11.289 23.4101 11.4212 23.0924 11.6556 22.858L15.2048 26.4073ZM16.3075 23.7491L16.3075 13.7047L11.288 13.7047L11.288 23.7491L16.3075 23.7491Z" fill="#FCFCFC" mask="url(#path-1-inside-1_0_311)"/>
</svg>
