<svg width="24" height="17" viewBox="0 0 24 17" fill="none" xmlns="http://www.w3.org/2000/svg">
<path d="M11.9272 1.00127C9.71363 1.0033 7.54362 1.6168 5.65663 2.77408C3.76964 3.93136 2.23904 5.58743 1.23369 7.55957C1.08099 7.85338 1.00127 8.17964 1.00127 8.51077C1.00127 8.8419 1.08099 9.16816 1.23369 9.46198C2.24199 11.4301 3.77387 13.0818 5.66063 14.2351C7.5474 15.3884 9.71587 15.9987 11.9272 15.9987C14.1386 15.9987 16.307 15.3884 18.1938 14.2351C20.0806 13.0818 21.6125 11.4301 22.6208 9.46198C22.7735 9.16816 22.8532 8.8419 22.8532 8.51077C22.8532 8.17964 22.7735 7.85338 22.6208 7.55957C21.6154 5.58743 20.0848 3.93136 18.1978 2.77408C16.3108 1.6168 14.1408 1.0033 11.9272 1.00127V1.00127Z" stroke="#91919F" stroke-width="2" stroke-linecap="round" stroke-linejoin="round"/>
<path d="M11.9272 12.0152C13.8627 12.0152 15.4316 10.4462 15.4316 8.51077C15.4316 6.57532 13.8627 5.00634 11.9272 5.00634C9.99176 5.00634 8.42277 6.57532 8.42277 8.51077C8.42277 10.4462 9.99176 12.0152 11.9272 12.0152Z" stroke="#91919F" stroke-width="2" stroke-linecap="round" stroke-linejoin="round"/>
</svg>
