<svg width="10" height="22" viewBox="0 0 10 22" fill="none" xmlns="http://www.w3.org/2000/svg">
<path d="M1.36364 5V16.5C1.36364 18.71 2.99091 20.5 5 20.5C7.00909 20.5 8.63636 18.71 8.63636 16.5V4C8.63636 2.62 7.61818 1.5 6.36364 1.5C5.10909 1.5 4.09091 2.62 4.09091 4V14.5C4.09091 15.05 4.5 15.5 5 15.5C5.5 15.5 5.90909 15.05 5.90909 14.5V5H7.27273V14.5C7.27273 15.88 6.25455 17 5 17C3.74545 17 2.72727 15.88 2.72727 14.5V4C2.72727 1.79 4.35455 0 6.36364 0C8.37273 0 10 1.79 10 4V16.5C10 19.54 7.76364 22 5 22C2.23636 22 0 19.54 0 16.5V5H1.36364Z" fill="#E9AB17"/>
</svg>
