<svg width="44" height="37" viewBox="0 0 44 37" fill="none" xmlns="http://www.w3.org/2000/svg">
<path d="M11.373 17.5719L12.2362 16.7166L17.6463 11.3565L11.373 17.5719ZM11.373 17.5719H12.5881M11.373 17.5719H12.5881M12.5881 17.5719H32.9994C33.132 17.5719 33.2592 17.6245 33.3529 17.7183C33.4467 17.8121 33.4994 17.9393 33.4994 18.0719C33.4994 18.2045 33.4467 18.3317 33.3529 18.4255C33.2592 18.5192 33.132 18.5719 32.9994 18.5719H12.5881H11.3809L12.2346 19.4255L17.5949 24.7859L17.5963 24.7873C17.6432 24.8338 17.6804 24.8891 17.7058 24.95C17.7312 25.011 17.7442 25.0763 17.7442 25.1423C17.7442 25.2083 17.7312 25.2737 17.7058 25.3346C17.6804 25.3956 17.6432 25.4509 17.5963 25.4974L17.5963 25.4974C17.5496 25.5437 17.4942 25.5804 17.4333 25.6053C17.3723 25.6301 17.3071 25.6427 17.2413 25.6424L17.2405 25.6424C17.1096 25.6418 16.9842 25.59 16.8911 25.498C16.8909 25.4978 16.8907 25.4976 16.8905 25.4974L11.2318 19.8387C11.2318 19.8386 11.2317 19.8386 11.2316 19.8385C10.7636 19.3697 10.5006 18.7344 10.5006 18.0719C10.5006 17.4098 10.7633 16.7747 11.231 16.306C11.2313 16.3057 11.2315 16.3054 11.2318 16.3051L16.9404 10.6465L16.9409 10.646C17.0346 10.5529 17.1613 10.5006 17.2934 10.5006C17.4255 10.5006 17.5522 10.5529 17.6459 10.646L17.6463 10.6464M12.5881 17.5719L17.6463 10.6464M17.6463 10.6464C17.6932 10.6929 17.7304 10.7482 17.7558 10.8092C17.7812 10.8701 17.7942 10.9355 17.7942 11.0015C17.7942 11.0675 17.7812 11.1328 17.7558 11.1938C17.7304 11.2546 17.6933 11.3099 17.6465 11.3563L17.6463 10.6464Z" fill="#E9AB17" stroke="white"/>
</svg>
