<svg width="34" height="34" viewBox="0 0 34 34" fill="none" xmlns="http://www.w3.org/2000/svg">
<path d="M4.25 14.1668C4.25 10.0788 4.25 8.74322 5.07986 7.91336C5.90973 7.0835 7.24537 7.0835 9.91667 7.0835H17C19.6713 7.0835 21.0069 7.0835 21.8368 7.91336C22.6667 8.74322 22.6667 10.0788 22.6667 14.1668V19.8335C22.6667 23.9215 22.6667 25.2571 21.8368 26.087C21.0069 26.9168 19.6713 26.9168 17 26.9168H9.91667C7.24537 26.9168 5.90973 26.9168 5.07986 26.087C4.25 25.2571 4.25 23.9215 4.25 19.8335V14.1668Z" fill="#E9AB17"/>
<path d="M24.0833 14.1668L28.7249 11.3335C29.1959 11.098 29.75 11.4405 29.75 11.967V22.0333C29.75 22.5598 29.1959 22.9023 28.7249 22.6668L24.0833 19.8335V14.1668Z" fill="#E9AB17"/>
</svg>
