<svg width="28" height="28" viewBox="0 0 28 28" fill="none" xmlns="http://www.w3.org/2000/svg">
<path d="M9.67167 15.5049C9.56232 15.6134 9.47552 15.7424 9.41629 15.8846C9.35706 16.0268 9.32657 16.1792 9.32657 16.3333C9.32657 16.4873 9.35706 16.6398 9.41629 16.7819C9.47552 16.9241 9.56232 17.0531 9.67167 17.1616L13.1717 20.6616C13.2801 20.7709 13.4092 20.8577 13.5513 20.917C13.6935 20.9762 13.846 21.0067 14 21.0067C14.154 21.0067 14.3065 20.9762 14.4487 20.917C14.5908 20.8577 14.7199 20.7709 14.8283 20.6616L18.3283 17.1616C18.548 16.9419 18.6714 16.6439 18.6714 16.3333C18.6714 16.0226 18.548 15.7246 18.3283 15.5049C18.1086 15.2852 17.8107 15.1618 17.5 15.1618C17.1893 15.1618 16.8914 15.2852 16.6717 15.5049L15.1667 17.0216V3.49992C15.1667 3.1905 15.0437 2.89375 14.825 2.67496C14.6062 2.45617 14.3094 2.33325 14 2.33325C13.6906 2.33325 13.3938 2.45617 13.175 2.67496C12.9562 2.89375 12.8333 3.1905 12.8333 3.49992V17.0216L11.3283 15.5049C11.2199 15.3956 11.0908 15.3088 10.9487 15.2495C10.8065 15.1903 10.654 15.1598 10.5 15.1598C10.346 15.1598 10.1935 15.1903 10.0513 15.2495C9.90916 15.3088 9.78012 15.3956 9.67167 15.5049ZM21 10.4999H18.6667C18.3572 10.4999 18.0605 10.6228 17.8417 10.8416C17.6229 11.0604 17.5 11.3572 17.5 11.6666C17.5 11.976 17.6229 12.2728 17.8417 12.4915C18.0605 12.7103 18.3572 12.8333 18.6667 12.8333H21C21.3094 12.8333 21.6062 12.9562 21.825 13.175C22.0438 13.3938 22.1667 13.6905 22.1667 13.9999V22.1666C22.1667 22.476 22.0438 22.7728 21.825 22.9916C21.6062 23.2103 21.3094 23.3333 21 23.3333H7C6.69058 23.3333 6.39383 23.2103 6.17504 22.9916C5.95625 22.7728 5.83333 22.476 5.83333 22.1666V13.9999C5.83333 13.6905 5.95625 13.3938 6.17504 13.175C6.39383 12.9562 6.69058 12.8333 7 12.8333H9.33333C9.64275 12.8333 9.9395 12.7103 10.1583 12.4915C10.3771 12.2728 10.5 11.976 10.5 11.6666C10.5 11.3572 10.3771 11.0604 10.1583 10.8416C9.9395 10.6228 9.64275 10.4999 9.33333 10.4999H7C6.07174 10.4999 5.1815 10.8687 4.52513 11.525C3.86875 12.1814 3.5 13.0717 3.5 13.9999V22.1666C3.5 23.0948 3.86875 23.9851 4.52513 24.6415C5.1815 25.2978 6.07174 25.6666 7 25.6666H21C21.9283 25.6666 22.8185 25.2978 23.4749 24.6415C24.1313 23.9851 24.5 23.0948 24.5 22.1666V13.9999C24.5 13.0717 24.1313 12.1814 23.4749 11.525C22.8185 10.8687 21.9283 10.4999 21 10.4999Z" fill="white"/>
</svg>
