<svg width="28" height="28" viewBox="0 0 28 28" fill="none" xmlns="http://www.w3.org/2000/svg">
<path d="M14 2.33325C9.48501 2.33325 5.83334 5.98492 5.83334 10.4999C5.83334 16.6249 14 25.6666 14 25.6666C14 25.6666 22.1667 16.6249 22.1667 10.4999C22.1667 5.98492 18.515 2.33325 14 2.33325ZM8.16668 10.4999C8.16668 7.27992 10.78 4.66659 14 4.66659C17.22 4.66659 19.8333 7.27992 19.8333 10.4999C19.8333 13.8599 16.4733 18.8883 14 22.0266C11.5733 18.9116 8.16668 13.8249 8.16668 10.4999Z" fill="#E9AB17"/>
<path d="M14 13.4166C15.6108 13.4166 16.9167 12.1107 16.9167 10.4999C16.9167 8.88909 15.6108 7.58325 14 7.58325C12.3892 7.58325 11.0833 8.88909 11.0833 10.4999C11.0833 12.1107 12.3892 13.4166 14 13.4166Z" fill="#E9AB17"/>
</svg>
