<svg width="42" height="41" viewBox="0 0 42 41" fill="none" xmlns="http://www.w3.org/2000/svg">
<path d="M40.2498 33.1236C39.7856 33.1236 39.3405 33.2898 39.0123 33.5855C38.6841 33.8813 38.4998 34.2824 38.4998 34.7007C38.4973 35.2538 38.3335 35.7967 38.0248 36.2747C37.716 36.7528 37.2732 37.1493 36.7408 37.4244C36.2083 37.6996 35.6049 37.8437 34.9911 37.8423C34.3773 37.8409 33.7748 37.6941 33.2438 37.4166C32.7129 37.1391 32.2722 36.7406 31.9661 36.2612C31.66 35.7817 31.4992 35.2382 31.4998 34.685C31.5004 34.1319 31.6624 33.5886 31.9696 33.1097C32.2768 32.6308 32.7182 32.2331 33.2498 31.9566C33.2007 32.2804 33.2644 32.6099 33.4322 32.8997C33.5999 33.1895 33.8634 33.4251 34.1862 33.574C34.5091 33.7229 34.8752 33.7778 35.2342 33.731C35.5931 33.6842 35.927 33.5381 36.1898 33.3129L38.6573 31.0892C38.8213 30.9426 38.9515 30.7681 39.0403 30.5759C39.1292 30.3838 39.1749 30.1776 39.1749 29.9694C39.1749 29.7612 39.1292 29.5551 39.0403 29.3629C38.9515 29.1707 38.8213 28.9963 38.6573 28.8497L36.1898 26.626C36.0271 26.4782 35.8335 26.3609 35.6203 26.2808C35.407 26.2007 35.1783 26.1595 34.9473 26.1595C34.7163 26.1595 34.4875 26.2007 34.2743 26.2808C34.061 26.3609 33.8675 26.4782 33.7048 26.626C33.4392 26.8772 33.273 27.2004 33.2319 27.5454C33.1907 27.8904 33.277 28.238 33.4773 28.5343C32.1901 28.7928 31.0102 29.3737 30.0733 30.2101C29.1365 31.0465 28.4808 32.1044 28.182 33.2619C27.8831 34.4195 27.9531 35.6295 28.384 36.7527C28.8149 37.876 29.5891 38.8667 30.6174 39.6107C31.6457 40.3547 32.8863 40.8219 34.1964 40.9583C35.5064 41.0947 36.8325 40.8948 38.022 40.3817C39.2115 39.8686 40.216 39.0631 40.9197 38.058C41.6235 37.0529 41.9978 35.8891 41.9997 34.7007C41.9997 34.2824 41.8154 33.8813 41.4872 33.5855C41.159 33.2898 40.7139 33.1236 40.2498 33.1236Z" fill="#392800"/>
<path d="M32.5148 2.41752C31.7531 1.99354 30.8838 1.75213 29.9894 1.71625C29.095 1.68036 28.2053 1.85119 27.4048 2.2125L26.8798 2.44907C26.6542 2.54046 26.4097 2.58771 26.1623 2.58771C25.915 2.58771 25.6705 2.54046 25.4449 2.44907L19.4424 0.335769C18.195 -0.111923 16.8048 -0.111923 15.5574 0.335769L9.55494 2.49638C9.32934 2.58777 9.0848 2.63503 8.83745 2.63503C8.5901 2.63503 8.34556 2.58777 8.11995 2.49638L7.59496 2.25981C6.79905 1.90166 5.9152 1.73165 5.0264 1.76574C4.13759 1.79983 3.27297 2.03691 2.51371 2.45471C1.75444 2.87251 1.12544 3.45733 0.685744 4.15427C0.246049 4.85122 0.0100838 5.63743 0 6.43909V29.9692C0 32.0606 0.921867 34.0663 2.5628 35.5451C4.20373 37.0239 6.42932 37.8547 8.74995 37.8547H25.1648C24.7379 36.847 24.5127 35.7791 24.4999 34.7005V34.5743C24.5027 32.8759 25.0128 31.2094 25.9765 29.7498C26.9403 28.2902 28.3222 27.0913 29.9773 26.2788C30.2204 25.5175 30.6717 24.8234 31.2898 24.2602L31.4998 24.0867C31.8312 23.8237 32.1953 23.5961 32.5848 23.4085C33.2274 23.1144 33.9303 22.9426 34.6498 22.9039H34.9998V6.43909C34.9997 5.63356 34.7714 4.84138 34.3366 4.1376C33.9017 3.43383 33.2746 2.84177 32.5148 2.41752ZM20.9999 26.8151H10.4999C10.0358 26.8151 9.59069 26.6489 9.26251 26.3531C8.93432 26.0574 8.74995 25.6562 8.74995 25.238C8.74995 24.8197 8.93432 24.4186 9.26251 24.1228C9.59069 23.827 10.0358 23.6609 10.4999 23.6609H20.9999C21.464 23.6609 21.9091 23.827 22.2373 24.1228C22.5655 24.4186 22.7499 24.8197 22.7499 25.238C22.7499 25.6562 22.5655 26.0574 22.2373 26.3531C21.9091 26.6489 21.464 26.8151 20.9999 26.8151ZM24.4999 17.3525H10.4999C10.0358 17.3525 9.59069 17.1864 9.26251 16.8906C8.93432 16.5949 8.74995 16.1937 8.74995 15.7754C8.74995 15.3572 8.93432 14.956 9.26251 14.6603C9.59069 14.3645 10.0358 14.1984 10.4999 14.1984H24.4999C24.964 14.1984 25.4091 14.3645 25.7373 14.6603C26.0655 14.956 26.2498 15.3572 26.2498 15.7754C26.2498 16.1937 26.0655 16.5949 25.7373 16.8906C25.4091 17.1864 24.964 17.3525 24.4999 17.3525Z" fill="#392800"/>
</svg>
