<svg width="24" height="24" viewBox="0 0 24 24" fill="none" xmlns="http://www.w3.org/2000/svg">
<g clip-path="url(#clip0_0_145)">
<path d="M12 24.0001C12.7957 24.0001 13.5587 23.684 14.1213 23.1214C14.684 22.5588 15 21.7957 15 21.0001H9.00002C9.00002 21.7957 9.31609 22.5588 9.8787 23.1214C10.4413 23.684 11.2044 24.0001 12 24.0001Z" fill="white"/>
<path fill-rule="evenodd" clip-rule="evenodd" d="M12 2.87706L10.8045 3.11856C9.44846 3.39486 8.22951 4.13121 7.35399 5.20299C6.47848 6.27477 6.00017 7.61613 6.00002 9.00006C6.00002 9.94206 5.79902 12.2956 5.31152 14.6131C5.07152 15.7636 4.74752 16.9621 4.31702 18.0001H19.683C19.2525 16.9621 18.93 15.7651 18.6885 14.6131C18.201 12.2956 18 9.94206 18 9.00006C17.9995 7.61639 17.5211 6.27538 16.6456 5.20391C15.7701 4.13244 14.5513 3.39631 13.1955 3.12006L12 2.87556V2.87706ZM21.33 18.0001C21.6645 18.6706 22.0515 19.2016 22.5 19.5001H1.50002C1.94852 19.2016 2.33552 18.6706 2.67002 18.0001C4.02002 15.3001 4.50002 10.3201 4.50002 9.00006C4.50002 5.37006 7.08002 2.34006 10.5075 1.64856C10.4866 1.43999 10.5096 1.22935 10.5751 1.03022C10.6405 0.831087 10.747 0.647891 10.8877 0.492444C11.0283 0.336996 11.1999 0.212749 11.3915 0.127714C11.5831 0.0426786 11.7904 -0.00125558 12 -0.00125558C12.2096 -0.00125558 12.4169 0.0426786 12.6085 0.127714C12.8001 0.212749 12.9718 0.336996 13.1124 0.492444C13.253 0.647891 13.3595 0.831087 13.425 1.03022C13.4904 1.22935 13.5135 1.43999 13.4925 1.64856C15.1879 1.99341 16.7121 2.9136 17.8069 4.25331C18.9017 5.59302 19.4998 7.26992 19.5 9.00006C19.5 10.3201 19.98 15.3001 21.33 18.0001Z" fill="white"/>
<circle cx="18" cy="6.00008" r="4.28571" fill="#E9AB17"/>
</g>
<defs>
<clipPath id="clip0_0_145">
<rect width="23.3333" height="23.3333" fill="white" transform="scale(1.02857)"/>
</clipPath>
</defs>
</svg>
