<svg width="18" height="18" viewBox="0 0 18 18" fill="none" xmlns="http://www.w3.org/2000/svg">
<path d="M5.62497 15.7499C7.48894 15.7499 8.99998 14.2388 8.99998 12.3749C8.99998 10.5109 7.48894 8.99987 5.62497 8.99987C3.76101 8.99987 2.24997 10.5109 2.24997 12.3749C2.24997 14.2388 3.76101 15.7499 5.62497 15.7499Z" fill="#FCFCFC"/>
<path d="M12.375 8.99998C14.239 8.99998 15.75 7.48894 15.75 5.62497C15.75 3.76101 14.239 2.24997 12.375 2.24997C10.511 2.24997 9 3.76101 9 5.62497C9 7.48894 10.511 8.99998 12.375 8.99998Z" fill="#FCFCFC"/>
<path d="M3.46494 7.87498C3.51884 7.8952 3.57615 7.90475 3.63369 7.9031C3.75777 7.90878 3.88023 7.87324 3.98199 7.80201C4.08374 7.73078 4.15906 7.62788 4.19619 7.50935C4.39866 6.86229 4.72903 6.26249 5.16772 5.74554C5.6064 5.22859 6.14445 4.80502 6.74995 4.49997V5.06247C6.74995 5.21166 6.80921 5.35473 6.9147 5.46022C7.02019 5.56571 7.16326 5.62497 7.31245 5.62497C7.46163 5.62497 7.60471 5.56571 7.7102 5.46022C7.81569 5.35473 7.87495 5.21166 7.87495 5.06247V2.81247C7.87495 2.66328 7.81569 2.52021 7.7102 2.41472C7.60471 2.30923 7.46163 2.24997 7.31245 2.24997L5.06244 2.24997C4.91326 2.24997 4.77019 2.30923 4.6647 2.41472C4.55921 2.52021 4.49994 2.66328 4.49994 2.81247C4.49994 2.96165 4.55921 3.10473 4.6647 3.21022C4.77019 3.31571 4.91326 3.37497 5.06244 3.37497H6.4237C5.63573 3.73503 4.93216 4.25655 4.35852 4.90577C3.78489 5.55498 3.35398 6.31742 3.09369 7.14373C3.06755 7.21599 3.0565 7.29284 3.06122 7.36954C3.06593 7.44624 3.08631 7.52116 3.12109 7.58968C3.15588 7.6582 3.20434 7.71887 3.26348 7.76793C3.32261 7.817 3.39118 7.85343 3.46494 7.87498Z" fill="#FCFCFC"/>
<path d="M10.6875 12.3749C10.5383 12.3749 10.3952 12.4342 10.2897 12.5397C10.1842 12.6452 10.125 12.7882 10.125 12.9374V15.1874C10.125 15.3366 10.1842 15.4797 10.2897 15.5852C10.3952 15.6907 10.5383 15.7499 10.6875 15.7499H12.9375C13.0867 15.7499 13.2297 15.6907 13.3352 15.5852C13.4407 15.4797 13.5 15.3366 13.5 15.1874C13.5 15.0382 13.4407 14.8952 13.3352 14.7897C13.2297 14.6842 13.0867 14.6249 12.9375 14.6249H11.5706C12.4572 14.2204 13.2358 13.6121 13.8428 12.8497C14.4498 12.0872 14.8682 11.1922 15.0637 10.2374C15.0785 10.1635 15.0786 10.0875 15.064 10.0136C15.0494 9.93969 15.0203 9.8694 14.9785 9.80672C14.9368 9.74404 14.883 9.6902 14.8204 9.64829C14.7578 9.60637 14.6876 9.57719 14.6137 9.56242C14.5399 9.54764 14.4638 9.54756 14.3899 9.56218C14.316 9.5768 14.2457 9.60583 14.183 9.64762C14.1204 9.68941 14.0665 9.74313 14.0246 9.80572C13.9827 9.86831 13.9535 9.93855 13.9387 10.0124C13.786 10.7638 13.4647 11.4706 12.9989 12.0796C12.5331 12.6886 11.9351 13.1839 11.25 13.528V12.9374C11.25 12.7882 11.1907 12.6452 11.0852 12.5397C10.9797 12.4342 10.8367 12.3749 10.6875 12.3749Z" fill="#FCFCFC"/>
</svg>
