<svg width="51" height="35" viewBox="0 0 51 35" fill="none" xmlns="http://www.w3.org/2000/svg">
<path d="M46.75 0H14.875C13.4087 0 12.2612 0.670834 11.4963 1.68667L0 17.25L11.4963 32.7942C12.2612 33.81 13.4087 34.5 14.875 34.5H46.75C49.0875 34.5 51 32.775 51 30.6667V3.83333C51 1.725 49.0875 0 46.75 0ZM40.375 24.1308L37.3787 26.8333L29.75 19.9525L22.1213 26.8333L19.125 24.1308L26.7537 17.25L19.125 10.3692L22.1213 7.66667L29.75 14.5475L37.3787 7.66667L40.375 10.3692L32.7463 17.25L40.375 24.1308Z" fill="#E9AB17"/>
</svg>
