<svg width="32" height="31" viewBox="0 0 32 31" fill="none" xmlns="http://www.w3.org/2000/svg">
<path d="M25 19.375H7H6.58L7.38 23.25C7.61053 24.3441 8.22418 25.3274 9.1171 26.0335C10.01 26.7396 11.1273 27.1252 12.28 27.125H19.72C20.8727 27.1252 21.99 26.7396 22.8829 26.0335C23.7758 25.3274 24.3895 24.3441 24.62 23.25L25.42 19.375H25ZM15 24.2188C15 24.4757 14.8946 24.7221 14.7071 24.9038C14.5196 25.0854 14.2652 25.1875 14 25.1875C13.7348 25.1875 13.4804 25.0854 13.2929 24.9038C13.1054 24.7221 13 24.4757 13 24.2188V22.2812C13 22.0243 13.1054 21.7779 13.2929 21.5962C13.4804 21.4146 13.7348 21.3125 14 21.3125C14.2652 21.3125 14.5196 21.4146 14.7071 21.5962C14.8946 21.7779 15 22.0243 15 22.2812V24.2188ZM19 24.2188C19 24.4757 18.8946 24.7221 18.7071 24.9038C18.5196 25.0854 18.2652 25.1875 18 25.1875C17.7348 25.1875 17.4804 25.0854 17.2929 24.9038C17.1054 24.7221 17 24.4757 17 24.2188V22.2812C17 22.0243 17.1054 21.7779 17.2929 21.5962C17.4804 21.4146 17.7348 21.3125 18 21.3125C18.2652 21.3125 18.5196 21.4146 18.7071 21.5962C18.8946 21.7779 19 22.0243 19 22.2812V24.2188Z" fill="#FCAC12"/>
<path d="M25 9.6875H23V8.71875C23 8.08266 22.8707 7.4528 22.6194 6.86513C22.3681 6.27746 21.9998 5.74349 21.5355 5.2937C21.0712 4.84392 20.52 4.48713 19.9134 4.24371C19.3068 4.00029 18.6566 3.875 18 3.875H14C12.6739 3.875 11.4021 4.38532 10.4645 5.2937C9.52678 6.20208 9 7.43411 9 8.71875V9.6875H7C6.20435 9.6875 5.44129 9.99369 4.87868 10.5387C4.31607 11.0837 4 11.823 4 12.5938V14.5312C4 15.302 4.31607 16.0413 4.87868 16.5863C5.44129 17.1313 6.20435 17.4375 7 17.4375H25C25.7956 17.4375 26.5587 17.1313 27.1213 16.5863C27.6839 16.0413 28 15.302 28 14.5312V12.5938C28 11.823 27.6839 11.0837 27.1213 10.5387C26.5587 9.99369 25.7956 9.6875 25 9.6875ZM11 8.71875C11 7.94796 11.3161 7.20875 11.8787 6.66372C12.4413 6.11869 13.2044 5.8125 14 5.8125H18C18.7956 5.8125 19.5587 6.11869 20.1213 6.66372C20.6839 7.20875 21 7.94796 21 8.71875V9.6875H11V8.71875Z" fill="#FCAC12"/>
</svg>
