<svg width="31" height="31" viewBox="0 0 31 31" fill="none" xmlns="http://www.w3.org/2000/svg">
<path d="M28.0937 24.2187C27.8368 24.2187 27.5904 24.3208 27.4087 24.5025C27.2271 24.6841 27.125 24.9305 27.125 25.1875C27.1236 25.5272 27.033 25.8607 26.8621 26.1543C26.6911 26.448 26.446 26.6916 26.1513 26.8606C25.8565 27.0296 25.5225 27.1181 25.1827 27.1173C24.8429 27.1164 24.5093 27.0262 24.2154 26.8558C23.9215 26.6853 23.6776 26.4405 23.5082 26.146C23.3387 25.8515 23.2497 25.5176 23.25 25.1778C23.2503 24.8381 23.34 24.5044 23.5101 24.2102C23.6801 23.916 23.9245 23.6717 24.2187 23.5018C24.1916 23.7008 24.2268 23.9032 24.3197 24.0812C24.4126 24.2592 24.5584 24.4039 24.7371 24.4954C24.9158 24.5869 25.1186 24.6206 25.3172 24.5918C25.5159 24.5631 25.7008 24.4733 25.8462 24.335L27.2122 22.969C27.303 22.879 27.3751 22.7718 27.4242 22.6538C27.4734 22.5357 27.4987 22.4091 27.4987 22.2812C27.4987 22.1533 27.4734 22.0267 27.4242 21.9087C27.3751 21.7906 27.303 21.6835 27.2122 21.5934L25.8462 20.2275C25.7562 20.1367 25.649 20.0646 25.531 20.0154C25.4129 19.9662 25.2863 19.9409 25.1584 19.9409C25.0305 19.9409 24.9039 19.9662 24.7859 20.0154C24.6678 20.0646 24.5607 20.1367 24.4706 20.2275C24.3236 20.3818 24.2316 20.5803 24.2088 20.7922C24.186 21.0041 24.2338 21.2176 24.3447 21.3997C23.6321 21.5584 22.9789 21.9153 22.4603 22.4291C21.9417 22.9428 21.5788 23.5927 21.4133 24.3037C21.2479 25.0147 21.2867 25.758 21.5252 26.448C21.7637 27.1379 22.1923 27.7465 22.7615 28.2035C23.3308 28.6606 24.0175 28.9475 24.7427 29.0313C25.4679 29.1151 26.2021 28.9923 26.8605 28.6771C27.519 28.3619 28.0751 27.8671 28.4646 27.2498C28.8542 26.6324 29.0614 25.9175 29.0625 25.1875C29.0625 24.9305 28.9604 24.6841 28.7788 24.5025C28.5971 24.3208 28.3507 24.2187 28.0937 24.2187Z" fill="#392800"/>
<path d="M23.8119 5.35707C23.3902 5.09663 22.909 4.94834 22.4139 4.9263C21.9188 4.90426 21.4262 5.00919 20.9831 5.23113L20.6925 5.37645C20.5676 5.43259 20.4322 5.46161 20.2953 5.46161C20.1584 5.46161 20.023 5.43259 19.8981 5.37645L16.5753 4.07832C15.8848 3.80332 15.1152 3.80332 14.4247 4.07832L11.1019 5.40551C10.977 5.46165 10.8416 5.49068 10.7047 5.49068C10.5678 5.49068 10.4324 5.46165 10.3075 5.40551L10.0169 5.2602C9.57628 5.0402 9.08701 4.93576 8.59499 4.9567C8.10296 4.97765 7.62433 5.12327 7.20402 5.37991C6.78372 5.63655 6.43551 5.99579 6.19211 6.4239C5.94871 6.85201 5.81808 7.33495 5.8125 7.82738V22.2811C5.8125 23.5658 6.32282 24.7978 7.2312 25.7062C8.13958 26.6146 9.37161 27.1249 10.6562 27.1249H19.7431C19.5068 26.5059 19.3821 25.8499 19.375 25.1874V25.1099C19.3766 24.0666 19.6589 23.0429 20.1925 22.1463C20.726 21.2498 21.491 20.5133 22.4072 20.0143C22.5417 19.5466 22.7916 19.1202 23.1337 18.7743L23.25 18.6677C23.4335 18.5061 23.635 18.3663 23.8506 18.2511C24.2063 18.0704 24.5955 17.9649 24.9937 17.9411H25.1875V7.82738C25.1875 7.33257 25.0611 6.84596 24.8204 6.41366C24.5796 5.98135 24.2325 5.61767 23.8119 5.35707ZM17.4375 20.3436H11.625C11.3681 20.3436 11.1217 20.2416 10.94 20.0599C10.7583 19.8782 10.6562 19.6318 10.6562 19.3749C10.6562 19.118 10.7583 18.8715 10.94 18.6899C11.1217 18.5082 11.3681 18.4061 11.625 18.4061H17.4375C17.6944 18.4061 17.9408 18.5082 18.1225 18.6899C18.3042 18.8715 18.4062 19.118 18.4062 19.3749C18.4062 19.6318 18.3042 19.8782 18.1225 20.0599C17.9408 20.2416 17.6944 20.3436 17.4375 20.3436ZM19.375 14.5311H11.625C11.3681 14.5311 11.1217 14.4291 10.94 14.2474C10.7583 14.0657 10.6562 13.8193 10.6562 13.5624C10.6562 13.3055 10.7583 13.0591 10.94 12.8774C11.1217 12.6957 11.3681 12.5936 11.625 12.5936H19.375C19.6319 12.5936 19.8783 12.6957 20.06 12.8774C20.2417 13.0591 20.3438 13.3055 20.3438 13.5624C20.3438 13.8193 20.2417 14.0657 20.06 14.2474C19.8783 14.4291 19.6319 14.5311 19.375 14.5311Z" fill="#392800"/>
</svg>
