<svg width="24" height="24" viewBox="0 0 24 24" fill="none" xmlns="http://www.w3.org/2000/svg">
<path d="M12 13.5C12.8284 13.5 13.5 12.8284 13.5 12C13.5 11.1716 12.8284 10.5 12 10.5C11.1716 10.5 10.5 11.1716 10.5 12C10.5 12.8284 11.1716 13.5 12 13.5Z" fill="#392800"/>
<path d="M19.3425 12.75L19.0575 12.5775C18.9517 12.5152 18.8641 12.4264 18.8032 12.3199C18.7423 12.2133 18.7102 12.0927 18.7102 11.97C18.7102 11.8473 18.7423 11.7267 18.8032 11.6201C18.8641 11.5136 18.9517 11.4248 19.0575 11.3625L19.3425 11.19C19.8579 10.8919 20.2341 10.4017 20.3888 9.8267C20.5434 9.25173 20.4638 8.63892 20.1675 8.1225L19.4175 6.8175C19.1181 6.30135 18.626 5.92525 18.0493 5.77194C17.4726 5.61864 16.8587 5.70067 16.3425 6L16.1025 6.135C15.9917 6.19431 15.8677 6.22483 15.7421 6.22373C15.6164 6.22264 15.493 6.18998 15.3832 6.12875C15.2734 6.06752 15.1808 5.97968 15.1139 5.87331C15.0469 5.76694 15.0077 5.64545 15 5.52V5.25C15 4.65326 14.7629 4.08097 14.341 3.65901C13.919 3.23705 13.3467 3 12.75 3H11.25C10.6533 3 10.081 3.23705 9.659 3.65901C9.23705 4.08097 9 4.65326 9 5.25V5.52C8.99778 5.64909 8.96227 5.77543 8.89691 5.88677C8.83155 5.99812 8.73855 6.09071 8.62692 6.15558C8.51529 6.22045 8.3888 6.2554 8.25969 6.25705C8.13059 6.2587 8.00325 6.22699 7.89 6.165L7.6575 6C7.14131 5.70067 6.52736 5.61864 5.9507 5.77194C5.37403 5.92525 4.88188 6.30135 4.5825 6.8175L3.8325 8.1225C3.67628 8.38069 3.57359 8.66768 3.53055 8.96637C3.48751 9.26506 3.505 9.56935 3.58197 9.86115C3.65895 10.1529 3.79383 10.4263 3.9786 10.6649C4.16337 10.9035 4.39425 11.1025 4.6575 11.25L4.9425 11.4225C5.04825 11.4848 5.13592 11.5736 5.19682 11.6801C5.25773 11.7867 5.28977 11.9073 5.28977 12.03C5.28977 12.1527 5.25773 12.2733 5.19682 12.3799C5.13592 12.4864 5.04825 12.5752 4.9425 12.6375L4.6575 12.75C4.1421 13.0481 3.76588 13.5383 3.61124 14.1133C3.4566 14.6883 3.53617 15.3011 3.8325 15.8175L4.5825 17.1225C4.72569 17.3831 4.91913 17.6127 5.15162 17.7981C5.38411 17.9835 5.65104 18.121 5.93698 18.2026C6.22292 18.2842 6.5222 18.3083 6.81752 18.2735C7.11283 18.2387 7.39833 18.1458 7.6575 18L7.89 17.8725C8.00401 17.8067 8.13334 17.772 8.265 17.772C8.39665 17.772 8.52598 17.8067 8.64 17.8725C8.7498 17.9376 8.84118 18.0296 8.90548 18.1398C8.96979 18.2501 9.00491 18.3749 9.0075 18.5025V18.75C9.0075 19.3467 9.24455 19.919 9.6665 20.341C10.0885 20.7629 10.6608 21 11.2575 21H12.7575C13.3542 21 13.9265 20.7629 14.3485 20.341C14.7704 19.919 15.0075 19.3467 15.0075 18.75V18.4725C15.0109 18.3442 15.0471 18.2189 15.1128 18.1086C15.1784 17.9982 15.2713 17.9066 15.3825 17.8425C15.4965 17.7767 15.6258 17.742 15.7575 17.742C15.8891 17.742 16.0185 17.7767 16.1325 17.8425L16.365 17.9775C16.8812 18.2768 17.4951 18.3589 18.0718 18.2056C18.6485 18.0522 19.1406 17.6762 19.44 17.16L20.19 15.855C20.3417 15.5964 20.4402 15.31 20.4797 15.0128C20.5192 14.7155 20.4988 14.4134 20.4199 14.1241C20.3409 13.8348 20.2049 13.5642 20.0199 13.3283C19.8349 13.0923 19.6046 12.8957 19.3425 12.75ZM12 15C11.4067 15 10.8266 14.8241 10.3333 14.4944C9.83994 14.1648 9.45542 13.6962 9.22836 13.1481C9.00129 12.5999 8.94188 11.9967 9.05764 11.4147C9.1734 10.8328 9.45912 10.2982 9.87867 9.87868C10.2982 9.45912 10.8328 9.1734 11.4147 9.05764C11.9967 8.94189 12.5999 9.0013 13.148 9.22836C13.6962 9.45542 14.1648 9.83994 14.4944 10.3333C14.824 10.8266 15 11.4067 15 12C15 12.7956 14.6839 13.5587 14.1213 14.1213C13.5587 14.6839 12.7956 15 12 15Z" fill="#392800"/>
</svg>
